<svg width="38" height="38" viewBox="0 0 38 38" fill="none" xmlns="http://www.w3.org/2000/svg">
<g clip-path="url(#clip0_33_1036)">
<path d="M18.9998 3.16663C10.2915 3.16663 3.1665 10.2916 3.1665 19C3.1665 27.7083 10.2915 34.8333 18.9998 34.8333C27.7082 34.8333 34.8332 27.7083 34.8332 19C34.8332 10.2916 27.7082 3.16663 18.9998 3.16663ZM6.33317 19C6.33317 12.0333 12.0332 6.33329 18.9998 6.33329C21.8498 6.33329 24.5415 7.28329 26.7582 9.02496L9.02484 26.7583C7.28317 24.5416 6.33317 21.85 6.33317 19ZM18.9998 31.6666C16.1498 31.6666 13.4582 30.7166 11.2415 28.975L28.9748 11.2416C30.7165 13.4583 31.6665 16.15 31.6665 19C31.6665 25.9666 25.9665 31.6666 18.9998 31.6666Z" fill="#F2F2F2"/>
</g>
<defs>
<clipPath id="clip0_33_1036">
<rect width="38" height="38" fill="white"/>
</clipPath>
</defs>
</svg>
