<svg width="50" height="50" viewBox="0 0 50 50" fill="none" xmlns="http://www.w3.org/2000/svg">
<path d="M10.4167 25H10.4375H10.4167ZM25 25H25.0209H25ZM39.5834 25H39.6042H39.5834ZM12.5 25C12.5 25.5526 12.2805 26.0825 11.8898 26.4732C11.4991 26.8639 10.9692 27.0834 10.4167 27.0834C9.86417 27.0834 9.33427 26.8639 8.94357 26.4732C8.55287 26.0825 8.33337 25.5526 8.33337 25C8.33337 24.4475 8.55287 23.9176 8.94357 23.5269C9.33427 23.1362 9.86417 22.9167 10.4167 22.9167C10.9692 22.9167 11.4991 23.1362 11.8898 23.5269C12.2805 23.9176 12.5 24.4475 12.5 25V25ZM27.0834 25C27.0834 25.5526 26.8639 26.0825 26.4732 26.4732C26.0825 26.8639 25.5526 27.0834 25 27.0834C24.4475 27.0834 23.9176 26.8639 23.5269 26.4732C23.1362 26.0825 22.9167 25.5526 22.9167 25C22.9167 24.4475 23.1362 23.9176 23.5269 23.5269C23.9176 23.1362 24.4475 22.9167 25 22.9167C25.5526 22.9167 26.0825 23.1362 26.4732 23.5269C26.8639 23.9176 27.0834 24.4475 27.0834 25V25ZM41.6667 25C41.6667 25.5526 41.4472 26.0825 41.0565 26.4732C40.6658 26.8639 40.1359 27.0834 39.5834 27.0834C39.0308 27.0834 38.5009 26.8639 38.1102 26.4732C37.7195 26.0825 37.5 25.5526 37.5 25C37.5 24.4475 37.7195 23.9176 38.1102 23.5269C38.5009 23.1362 39.0308 22.9167 39.5834 22.9167C40.1359 22.9167 40.6658 23.1362 41.0565 23.5269C41.4472 23.9176 41.6667 24.4475 41.6667 25V25Z" stroke="#838383" stroke-width="2" stroke-linecap="round" stroke-linejoin="round"/>
</svg>
