<svg width="408" height="48" viewBox="0 0 408 48" fill="none" xmlns="http://www.w3.org/2000/svg">
<g filter="url(#filter0_d_19_148)">
<rect x="4.5" y="2.5" width="399" height="39" rx="3.5" stroke="#111111" shape-rendering="crispEdges"/>
</g>
<g clip-path="url(#clip0_19_148)">
<path d="M378.228 26.5213L376.941 26.1759L377.465 24.2166C376.68 23.927 375.95 23.5049 375.307 22.9686L373.872 24.4046L372.929 23.4613L374.365 22.0259C373.554 21.0551 373.009 19.8905 372.784 18.6459L374.096 18.4066C374.602 21.2079 377.053 23.3333 380 23.3333C382.947 23.3333 385.398 21.2079 385.904 18.4066L387.216 18.6453C386.991 19.89 386.446 21.0549 385.636 22.0259L387.071 23.4613L386.128 24.4046L384.693 22.9686C384.05 23.5049 383.32 23.927 382.535 24.2166L383.059 26.1766L381.772 26.5213L381.247 24.5613C380.422 24.7027 379.578 24.7027 378.753 24.5613L378.228 26.5213Z" fill="black"/>
</g>
<circle cx="24" cy="22" r="4" fill="#111111"/>
<circle cx="37" cy="22" r="4" fill="#111111"/>
<circle cx="50" cy="22" r="4" fill="#111111"/>
<circle cx="63" cy="22" r="4" fill="#111111"/>
<circle cx="76" cy="22" r="4" fill="#111111"/>
<circle cx="89" cy="22" r="4" fill="#111111"/>
<circle cx="102" cy="22" r="4" fill="#111111"/>
<circle cx="115" cy="22" r="4" fill="#111111"/>
<defs>
<filter id="filter0_d_19_148" x="0" y="0" width="408" height="48" filterUnits="userSpaceOnUse" color-interpolation-filters="sRGB">
<feFlood flood-opacity="0" result="BackgroundImageFix"/>
<feColorMatrix in="SourceAlpha" type="matrix" values="0 0 0 0 0 0 0 0 0 0 0 0 0 0 0 0 0 0 127 0" result="hardAlpha"/>
<feMorphology radius="2" operator="dilate" in="SourceAlpha" result="effect1_dropShadow_19_148"/>
<feOffset dy="2"/>
<feGaussianBlur stdDeviation="1"/>
<feComposite in2="hardAlpha" operator="out"/>
<feColorMatrix type="matrix" values="0 0 0 0 0.8 0 0 0 0 0.8 0 0 0 0 0.8 0 0 0 0.1 0"/>
<feBlend mode="normal" in2="BackgroundImageFix" result="effect1_dropShadow_19_148"/>
<feBlend mode="normal" in="SourceGraphic" in2="effect1_dropShadow_19_148" result="shape"/>
</filter>
<clipPath id="clip0_19_148">
<rect width="16" height="16" fill="white" transform="translate(372 14)"/>
</clipPath>
</defs>
</svg>
