<svg width="160" height="34" viewBox="0 0 160 34" fill="none" xmlns="http://www.w3.org/2000/svg">
<path d="M140.668 16.588C140.668 14.6795 142.159 13.1319 144 13.1319C145.841 13.1319 147.334 14.6795 147.334 16.588C147.334 18.4966 145.841 20.0441 144 20.0441C142.159 20.0441 140.668 18.4966 140.668 16.588ZM138.865 16.588C138.865 19.5283 141.164 21.9116 144 21.9116C146.836 21.9116 149.135 19.5283 149.135 16.588C149.135 13.6478 146.836 11.2644 144 11.2644C141.164 11.2644 138.865 13.6478 138.865 16.588ZM148.139 11.0534C148.138 11.2994 148.209 11.54 148.34 11.7446C148.472 11.9493 148.66 12.1088 148.879 12.2031C149.098 12.2973 149.339 12.3221 149.572 12.2741C149.805 12.2262 150.019 12.1078 150.187 11.9339C150.355 11.76 150.469 11.5384 150.515 11.2971C150.562 11.0557 150.538 10.8056 150.447 10.5782C150.357 10.3508 150.203 10.1565 150.006 10.0197C149.808 9.88291 149.576 9.80985 149.339 9.80975H149.339C149.02 9.80991 148.715 9.94096 148.49 10.1741C148.265 10.4073 148.139 10.7235 148.139 11.0534V11.0534ZM139.96 25.0269C138.985 24.9809 138.455 24.8125 138.103 24.6703C137.636 24.4818 137.303 24.2574 136.953 23.8948C136.603 23.5322 136.386 23.1872 136.205 22.7031C136.068 22.3382 135.905 21.7886 135.861 20.7778C135.813 19.685 135.803 19.3567 135.803 16.5881C135.803 13.8195 135.813 13.4921 135.861 12.3984C135.905 11.3876 136.069 10.8391 136.205 10.4731C136.387 9.98907 136.603 9.64371 136.953 9.28059C137.303 8.91748 137.636 8.69271 138.103 8.5051C138.455 8.36278 138.985 8.19441 139.96 8.14846C141.014 8.0982 141.331 8.08816 144 8.08816C146.67 8.08816 146.987 8.09903 148.042 8.14846C149.017 8.19449 149.546 8.36411 149.899 8.5051C150.365 8.69271 150.699 8.91798 151.049 9.28059C151.399 9.64321 151.615 9.98907 151.797 10.4731C151.934 10.838 152.097 11.3876 152.141 12.3984C152.189 13.4921 152.199 13.8195 152.199 16.5881C152.199 19.3567 152.189 19.6841 152.141 20.7778C152.096 21.7886 151.933 22.338 151.797 22.7031C151.615 23.1872 151.399 23.5325 151.049 23.8948C150.699 24.2571 150.365 24.4818 149.899 24.6703C149.547 24.8126 149.017 24.981 148.042 25.0269C146.987 25.0772 146.671 25.0872 144 25.0872C141.33 25.0872 141.014 25.0772 139.96 25.0269V25.0269ZM139.878 6.28331C138.813 6.33357 138.086 6.50857 137.45 6.76486C136.792 7.02952 136.235 7.38458 135.679 7.96069C135.122 8.53679 134.781 9.11513 134.525 9.79723C134.278 10.4563 134.109 11.21 134.061 12.3137C134.012 13.4191 134 13.7725 134 16.588C134 19.4035 134.012 19.7569 134.061 20.8623C134.109 21.9661 134.278 22.7198 134.525 23.3788C134.781 24.0605 135.122 24.6395 135.679 25.2154C136.235 25.7912 136.792 26.1458 137.45 26.4112C138.087 26.6675 138.813 26.8425 139.878 26.8928C140.944 26.943 141.285 26.9555 144 26.9555C146.716 26.9555 147.057 26.9438 148.123 26.8928C149.188 26.8425 149.915 26.6675 150.55 26.4112C151.208 26.1458 151.765 25.7915 152.322 25.2154C152.878 24.6393 153.219 24.0605 153.475 23.3788C153.723 22.7198 153.892 21.966 153.94 20.8623C153.988 19.7561 154 19.4035 154 16.588C154 13.7725 153.988 13.4191 153.94 12.3137C153.891 11.2099 153.723 10.4559 153.475 9.79723C153.219 9.11554 152.878 8.5377 152.322 7.96069C151.766 7.38367 151.208 7.02952 150.551 6.76486C149.915 6.50857 149.188 6.33274 148.124 6.28331C147.058 6.23304 146.717 6.22052 144.001 6.22052C141.285 6.22052 140.944 6.23221 139.878 6.28331Z" fill="#121212" fill-opacity="0.6"/>
<path d="M87.8415 13.0025C87.8415 13.1839 87.8415 13.3653 87.8415 13.5208C87.8415 18.886 83.8915 25.0806 76.6915 25.0806C74.4665 25.0806 72.4165 24.4067 70.6665 23.2663C70.9665 23.2922 71.2915 23.3181 71.5915 23.3181C73.4165 23.3181 75.1165 22.6702 76.4665 21.5816C74.7415 21.5556 73.2915 20.3634 72.8165 18.7564C73.0665 18.8083 73.2915 18.8342 73.5665 18.8342C73.9165 18.8342 74.2665 18.7823 74.5915 18.6787C72.7915 18.3158 71.4415 16.6829 71.4415 14.7131C71.4415 14.6872 71.4415 14.6872 71.4415 14.6613C71.9665 14.9723 72.5665 15.1537 73.2165 15.1796C72.1665 14.4539 71.4665 13.2098 71.4665 11.7843C71.4665 11.0326 71.6665 10.3328 71.9915 9.73669C73.9165 12.199 76.8165 13.8059 80.0665 13.9874C79.9915 13.7023 79.9665 13.3653 79.9665 13.0543C79.9665 10.7994 81.7165 8.98505 83.8915 8.98505C85.0165 8.98505 86.0415 9.4775 86.7415 10.2551C87.6415 10.0736 88.4665 9.73669 89.2415 9.27015C88.9415 10.2291 88.3165 11.0067 87.5165 11.5251C88.3165 11.4214 89.0665 11.2141 89.7665 10.8771C89.2665 11.7065 88.6165 12.4322 87.8415 13.0025Z" fill="#121212" fill-opacity="0.6"/>
<path d="M17.0681 27.6467V17.5579H20.3345L20.8235 13.6262H17.0681V11.1159C17.0681 9.97754 17.373 9.20171 18.9477 9.20171L20.9559 9.20075V5.68424C20.6084 5.6365 19.4164 5.52948 18.0296 5.52948C15.1342 5.52948 13.1519 7.3617 13.1519 10.7267V13.6263H9.87708V17.558H13.1518V27.6468L17.0681 27.6467Z" fill="#121212" fill-opacity="0.6"/>
</svg>
