<svg width="408" height="48" viewBox="0 0 408 48" fill="none" xmlns="http://www.w3.org/2000/svg">
<g filter="url(#filter0_d_33_1178)">
<rect x="4.5" y="2.5" width="399" height="39" rx="3.5" stroke="#111111" shape-rendering="crispEdges"/>
</g>
<g clip-path="url(#clip0_33_1178)">
<path d="M378.228 26.5214L376.941 26.1761L377.465 24.2167C376.68 23.9271 375.95 23.505 375.307 22.9687L373.872 24.4047L372.929 23.4614L374.365 22.0261C373.554 21.0552 373.009 19.8906 372.784 18.6461L374.096 18.4067C374.602 21.2081 377.053 23.3334 380 23.3334C382.947 23.3334 385.398 21.2081 385.904 18.4067L387.216 18.6454C386.991 19.8901 386.446 21.055 385.636 22.0261L387.071 23.4614L386.128 24.4047L384.693 22.9687C384.05 23.505 383.32 23.9271 382.535 24.2167L383.059 26.1767L381.772 26.5214L381.247 24.5614C380.422 24.7028 379.578 24.7028 378.753 24.5614L378.228 26.5214Z" fill="black"/>
</g>
<circle cx="24" cy="22" r="4" fill="#111111"/>
<circle cx="37" cy="22" r="4" fill="#111111"/>
<circle cx="50" cy="22" r="4" fill="#111111"/>
<circle cx="63" cy="22" r="4" fill="#111111"/>
<circle cx="76" cy="22" r="4" fill="#111111"/>
<circle cx="89" cy="22" r="4" fill="#111111"/>
<circle cx="102" cy="22" r="4" fill="#111111"/>
<circle cx="115" cy="22" r="4" fill="#111111"/>
<defs>
<filter id="filter0_d_33_1178" x="0" y="0" width="408" height="48" filterUnits="userSpaceOnUse" color-interpolation-filters="sRGB">
<feFlood flood-opacity="0" result="BackgroundImageFix"/>
<feColorMatrix in="SourceAlpha" type="matrix" values="0 0 0 0 0 0 0 0 0 0 0 0 0 0 0 0 0 0 127 0" result="hardAlpha"/>
<feMorphology radius="2" operator="dilate" in="SourceAlpha" result="effect1_dropShadow_33_1178"/>
<feOffset dy="2"/>
<feGaussianBlur stdDeviation="1"/>
<feComposite in2="hardAlpha" operator="out"/>
<feColorMatrix type="matrix" values="0 0 0 0 0.8 0 0 0 0 0.8 0 0 0 0 0.8 0 0 0 0.1 0"/>
<feBlend mode="normal" in2="BackgroundImageFix" result="effect1_dropShadow_33_1178"/>
<feBlend mode="normal" in="SourceGraphic" in2="effect1_dropShadow_33_1178" result="shape"/>
</filter>
<clipPath id="clip0_33_1178">
<rect width="16" height="16" fill="white" transform="translate(372 14)"/>
</clipPath>
</defs>
</svg>
