<svg width="18" height="18" viewBox="0 0 18 18" fill="none" xmlns="http://www.w3.org/2000/svg">
<path d="M9.3365 7.46229L16.3944 0.355494C16.7268 0.0208248 17.2657 0.0208248 17.598 0.355494C17.9304 0.690164 17.9304 1.23277 17.598 1.56744L10.5401 8.67424L17.598 15.781C17.9304 16.1157 17.9304 16.6583 17.598 16.993C17.2657 17.3277 16.7268 17.3277 16.3944 16.993L9.3365 9.88619L2.27857 16.993C1.9462 17.3277 1.40733 17.3277 1.07496 16.993C0.742592 16.6583 0.742592 16.1157 1.07496 15.781L8.13289 8.67424L1.07496 1.56744C0.742592 1.23277 0.742592 0.690164 1.07496 0.355494C1.40733 0.0208248 1.9462 0.0208248 2.27857 0.355494L9.3365 7.46229Z" fill="#999999"/>
</svg>
