<svg width="18" height="18" viewBox="0 0 18 18" fill="none" xmlns="http://www.w3.org/2000/svg">
<path d="M8.98396 8.07021L16.0419 0.963404C16.3743 0.628735 16.9131 0.628735 17.2455 0.963404C17.5779 1.29807 17.5779 1.84068 17.2455 2.17535L10.1876 9.28215L17.2455 16.3889C17.5779 16.7236 17.5779 17.2662 17.2455 17.6009C16.9131 17.9356 16.3743 17.9356 16.0419 17.6009L8.98396 10.4941L1.92603 17.6009C1.59366 17.9356 1.05479 17.9356 0.722421 17.6009C0.390053 17.2662 0.390053 16.7236 0.722421 16.3889L7.78035 9.28215L0.722421 2.17535C0.390053 1.84068 0.390053 1.29807 0.722421 0.963404C1.05479 0.628735 1.59366 0.628735 1.92603 0.963404L8.98396 8.07021Z" fill="#999999"/>
</svg>
