<svg width="18" height="19" viewBox="0 0 18 19" fill="none" xmlns="http://www.w3.org/2000/svg">
<path d="M8.98396 8.26649L16.0419 1.15969C16.3743 0.825024 16.9131 0.825024 17.2455 1.15969C17.5779 1.49436 17.5779 2.03697 17.2455 2.37164L10.1876 9.47844L17.2455 16.5852C17.5779 16.9199 17.5779 17.4625 17.2455 17.7972C16.9131 18.1319 16.3743 18.1319 16.0419 17.7972L8.98396 10.6904L1.92603 17.7972C1.59366 18.1319 1.05479 18.1319 0.722421 17.7972C0.390053 17.4625 0.390053 16.9199 0.722421 16.5852L7.78035 9.47844L0.722421 2.37164C0.390053 2.03697 0.390053 1.49436 0.722421 1.15969C1.05479 0.825024 1.59366 0.825024 1.92603 1.15969L8.98396 8.26649Z" fill="#999999"/>
</svg>
