<svg width="18" height="19" viewBox="0 0 18 19" fill="none" xmlns="http://www.w3.org/2000/svg">
<path d="M9.3365 8.26601L16.3944 1.15921C16.7268 0.824536 17.2657 0.824536 17.598 1.15921C17.9304 1.49387 17.9304 2.03648 17.598 2.37115L10.5401 9.47795L17.598 16.5848C17.9304 16.9194 17.9304 17.462 17.598 17.7967C17.2657 18.1314 16.7268 18.1314 16.3944 17.7967L9.3365 10.6899L2.27857 17.7967C1.9462 18.1314 1.40733 18.1314 1.07496 17.7967C0.742592 17.462 0.742592 16.9194 1.07496 16.5848L8.13289 9.47795L1.07496 2.37115C0.742592 2.03648 0.742592 1.49387 1.07496 1.15921C1.40733 0.824536 1.9462 0.824536 2.27857 1.15921L9.3365 8.26601Z" fill="#999999"/>
</svg>
