<svg width="19" height="19" viewBox="0 0 19 19" fill="none" xmlns="http://www.w3.org/2000/svg">
<path d="M9.5 8.1565L17.3782 0.278249C17.7492 -0.0927495 18.3508 -0.0927495 18.7218 0.278249C19.0927 0.649247 19.0927 1.25075 18.7218 1.62175L10.8435 9.5L18.7218 17.3782C19.0927 17.7492 19.0927 18.3508 18.7218 18.7218C18.3508 19.0927 17.7492 19.0927 17.3782 18.7218L9.5 10.8435L1.62175 18.7218C1.25075 19.0927 0.649247 19.0927 0.278249 18.7218C-0.0927495 18.3508 -0.0927495 17.7492 0.278249 17.3782L8.1565 9.5L0.278249 1.62175C-0.0927495 1.25075 -0.0927495 0.649247 0.278249 0.278249C0.649247 -0.0927495 1.25075 -0.0927495 1.62175 0.278249L9.5 8.1565Z" fill="#999999"/>
</svg>
